<svg id="Layer_1" data-name="Layer 1" xmlns="http://www.w3.org/2000/svg" viewBox="0 0 258.03 234.05"><defs><style>.cls-1{fill:#343334;}.cls-2{fill:#333;}</style></defs><title>w-logo</title><path class="cls-1" d="M244.34,58.69A124.35,124.35,0,0,0,224.5,38.85l-5.72-4.55L188.3,64.78l7.47,5.68a88.74,88.74,0,0,1,16.94,16.94,86.36,86.36,0,0,1,5.31,96.2l-49.71-50.08-24.47-24.28L69.57,183.5a86.44,86.44,0,0,1,5.28-96.22,88.84,88.84,0,0,1,17-17l7.47-5.68L69,34.3l-5.72,4.55A124.31,124.31,0,0,0,43.42,58.66a128.67,128.67,0,0,0,0,161.3A124.41,124.41,0,0,0,63.23,239.8L69,244.36,144,169.31l75.05,75,5.72-4.55A124.26,124.26,0,0,0,244.6,220a128.17,128.17,0,0,0-.25-161.3Z" transform="translate(-14.99 -34.3)"/><rect class="cls-2" x="133.12" y="192.93" width="21.9" height="21.9" transform="translate(-116.96 127.29) rotate(-45)"/><rect class="cls-2" x="157.26" y="217.37" width="21.9" height="21.9" transform="translate(-127.17 151.51) rotate(-45)"/><rect class="cls-2" x="108.84" y="217.37" width="21.9" height="21.9" transform="translate(-141.35 117.28) rotate(-45)"/><rect class="cls-2" x="133.16" y="241.91" width="21.9" height="21.9" transform="translate(-151.58 141.66) rotate(-45)"/><polygon class="cls-2" points="113.61 48.57 129 33.04 144.4 48.57 153.29 39.68 137.76 24.15 153.29 8.76 144.4 0 129 15.39 113.61 0 104.72 8.76 120.25 24.15 104.72 39.68 113.61 48.57"/></svg>