<svg id="Layer_1" data-name="Layer 1" xmlns="http://www.w3.org/2000/svg" viewBox="0 0 960.85 288"><defs><style>.cls-1{fill:#fff;}</style></defs><title>w-bar-neg</title><path class="cls-1" d="M303.07,23.58h38.6l11.51,78c2.3,17.38,4.6,35,6.9,52.66h1c3.07-17.64,6.39-35.28,9.72-52.66l17.9-78h32l18.15,78c3.32,16.87,6.65,34.77,10,52.66h1c2-17.89,4.35-35.53,6.65-52.66l11.51-78h36L474.36,190.26H427.06L410.7,114.59c-2.56-12.78-4.86-26.33-6.65-38.6h-1c-2,12.27-4.09,25.82-6.65,38.6l-15.85,75.67H334Z" transform="translate(0 0)"/><path class="cls-1" d="M605.25,150.63H554.12l-10.23,39.63H505.54L558,23.58h45l52.41,166.68H615.47Zm-7.67-29.4-4.09-15.34c-4.6-16.62-8.95-36.3-13.55-53.69h-1c-3.84,17.64-8.44,37.07-13,53.69l-4.09,15.34Z" transform="translate(0 0)"/><path class="cls-1" d="M763,190.26l-32-60.08H710.57v60.08H672.74V23.58h60.08c35.28,0,64.42,12.27,64.42,51.9,0,24.54-12,40.14-29.65,48.06l37.58,66.72Zm-52.41-90h19.17c19.69,0,30.42-8.44,30.42-24.8s-10.74-22-30.42-22H710.57Z" transform="translate(0 0)"/><path class="cls-1" d="M830,23.58h47c51.13,0,83.85,25.31,83.85,82.57s-32.72,84.11-81.55,84.11H830Zm45,136.26c28.12,0,47.29-13.81,47.29-53.69S903.07,54,874.95,54h-7.16V159.84Z" transform="translate(0 0)"/><path class="cls-1" d="M341.22,229.89h8.48c10.44,0,16,6,16,16.8s-5.58,17.11-15.82,17.11h-8.69Zm8.17,30.4c8,0,11.89-5,11.89-13.6s-3.93-13.29-11.89-13.29h-3.83v26.88Z" transform="translate(0 0)"/><path class="cls-1" d="M398.71,229.89h19.54v3.62h-15.2v10.65h12.82v3.67H403.05v12.3h15.72v3.67H398.71Z" transform="translate(0 0)"/><path class="cls-1" d="M451.7,256.41a13.19,13.19,0,0,0,9.36,4.24c4.45,0,7.08-2.22,7.08-5.53,0-3.46-2.48-4.55-5.69-6L457.6,247c-3.15-1.34-6.88-3.77-6.88-8.74,0-5.17,4.55-9,10.7-9a13.86,13.86,0,0,1,10,4.19l-2.27,2.79a10.91,10.91,0,0,0-7.7-3.21c-3.83,0-6.36,1.91-6.36,5,0,3.26,3,4.5,5.64,5.64l4.86,2.07c3.93,1.71,7,4,7,9,0,5.38-4.45,9.67-11.58,9.67a16.33,16.33,0,0,1-11.84-5Z" transform="translate(0 0)"/><path class="cls-1" d="M504.75,229.89h4.34V263.8h-4.34Z" transform="translate(0 0)"/><path class="cls-1" d="M557.64,229.27a13.19,13.19,0,0,1,9.72,4.19l-2.48,2.74a9.23,9.23,0,0,0-7.19-3.15c-6.88,0-11.27,5.27-11.27,13.7s4,13.91,11.27,13.91a9.45,9.45,0,0,0,6.15-2v-8.84h-7.19v-3.57h11.12v14.27a15.24,15.24,0,0,1-10.55,3.93c-8.89,0-15.25-6.51-15.25-17.58C542,235.94,548.54,229.27,557.64,229.27Z" transform="translate(0 0)"/><path class="cls-1" d="M601.43,229.89h4.45l12.31,21.3,3.67,7h.21c-.21-3.41-.57-7.24-.57-10.81V229.89h4.08V263.8h-4.45l-12.25-21.35-3.67-7H605c.21,3.41.52,7,.52,10.6V263.8h-4.08Z" transform="translate(0 0)"/><path class="cls-1" d="M721.84,264.42a26.7,26.7,0,0,1-7.81-3.88,14.25,14.25,0,0,1-9.77,3.88c-6.15,0-10.34-3.93-10.34-9.41,0-4.55,3.21-7.39,6.67-9.77a18.23,18.23,0,0,1-2.22-8,7.67,7.67,0,0,1,7.86-8c4.19,0,6.67,2.74,6.67,6.72,0,4.45-3.88,7.29-7.65,10a44,44,0,0,0,8.58,9.51,29.58,29.58,0,0,0,4.76-10h4a38.53,38.53,0,0,1-5.95,12.15,22.48,22.48,0,0,0,6.36,3.26ZM704.73,261a9.9,9.9,0,0,0,6.46-2.74,51.45,51.45,0,0,1-8.89-10.08c-2.38,1.91-4.24,3.93-4.24,6.57C698.06,258.53,701,261,704.73,261Zm-1.09-17.84c3.1-2.07,5.79-4.14,5.79-7.14,0-2-.93-3.72-3.21-3.72-2.53,0-4.19,2.12-4.19,4.91A14.25,14.25,0,0,0,703.64,243.17Z" transform="translate(0 0)"/><path class="cls-1" d="M790.4,229.89h8.48c10.44,0,16,6,16,16.8s-5.58,17.11-15.82,17.11H790.4Zm8.17,30.4c8,0,11.89-5,11.89-13.6s-3.93-13.29-11.89-13.29h-3.83v26.88Z" transform="translate(0 0)"/><path class="cls-1" d="M847.89,229.89h19.54v3.62h-15.2v10.65h12.82v3.67H852.23v12.3H868v3.67H847.89Z" transform="translate(0 0)"/><path class="cls-1" d="M896.13,229.89h4.55l5.48,18.3c1.19,4,2,7.24,3.26,11.22h.21c1.24-4,2.12-7.19,3.26-11.22l5.43-18.3h4.39L911.95,263.8h-5Z" transform="translate(0 0)"/><path class="cls-1" d="M120.09,32.44A111.56,111.56,0,1,1,8.87,144.33,111.53,111.53,0,0,1,120.09,32.44m0-8.86A120.4,120.4,0,0,0,35.54,229.38,120.4,120.4,0,1,0,120.09,23.58Z" transform="translate(0 0)"/><path class="cls-1" d="M194.6,84A90.23,90.23,0,0,0,179.88,69.4l-4.26-3.35-22.5,22.66,5.52,4.18a64.05,64.05,0,0,1,16.81,83.79l-37-37-18.15-18L65.48,176.87a64,64,0,0,1-9.12-32.7A64.11,64.11,0,0,1,81.7,92.9l5.52-4.26L64.64,66.23l-4.26,3.43A90.23,90.23,0,0,0,45.74,84.37,95.36,95.36,0,0,0,46.08,204,90.23,90.23,0,0,0,60.8,218.6l4.26,3.35,55.44-55.78,55.78,55.44,4.26-3.43a90.23,90.23,0,0,0,14.63-14.72A94.69,94.69,0,0,0,194.6,84Z" transform="translate(0 0)"/><rect class="cls-1" x="112.47" y="183.75" width="16.22" height="16.22" transform="translate(-100.49 142.09) rotate(-45.16)"/><rect class="cls-1" x="130.44" y="201.78" width="16.22" height="16.22" transform="translate(-107.98 160.15) rotate(-45.16)"/><rect class="cls-1" x="94.55" y="201.86" width="16.22" height="16.22" transform="translate(-118.62 134.72) rotate(-45.16)"/><rect class="cls-1" x="112.62" y="220.02" width="16.22" height="16.22" transform="translate(-126.17 152.89) rotate(-45.16)"/><polygon class="cls-1" points="108.8 84.37 120.17 72.83 131.63 84.37 138.24 77.77 126.7 66.23 138.15 54.77 131.55 48.33 120.17 59.79 108.72 48.41 102.19 54.94 113.73 66.31 102.19 77.85 108.8 84.37"/><rect class="cls-1" x="270.05" width="3.6" height="288"/></svg>