<?xml version="1.0" encoding="utf-8"?>
<!-- Generator: Adobe Illustrator 21.0.0, SVG Export Plug-In . SVG Version: 6.00 Build 0)  -->
<svg version="1.1" id="Layer_1" xmlns="http://www.w3.org/2000/svg" xmlns:xlink="http://www.w3.org/1999/xlink" x="0px" y="0px"
	 viewBox="0 0 258 234.1" style="enable-background:new 0 0 258 234.1;" xml:space="preserve">
<style type="text/css">
	.st0{fill:#FFFFFF;}
</style>
<title>w-logo</title>
<path class="st0" d="M229.3,24.4c-5.8-7.3-12.5-14-19.8-19.8L203.8,0l-30.5,30.5l7.5,5.7c6.4,4.9,12.1,10.6,16.9,16.9
	c21.2,28,23.3,66,5.3,96.2l-49.7-50.1l-24.5-24.3l-74.3,74.3C36.6,119,38.7,81,59.9,53c4.9-6.4,10.6-12.1,17-17l7.5-5.7L54,0
	l-5.7,4.5c-7.3,5.8-14,12.5-19.9,19.8c-37.9,47.1-37.9,114.2,0,161.3c5.8,7.3,12.5,14,19.8,19.8l5.8,4.6l75-75.1l75.1,75l5.7-4.6
	c7.3-5.8,14-12.4,19.8-19.8C267.6,138.6,267.5,71.4,229.3,24.4L229.3,24.4z"/>
<rect x="118.1" y="158.6" transform="matrix(0.7071 -0.7071 0.7071 0.7071 -82.1066 140.9412)" class="st0" width="21.9" height="21.9"/>
<rect x="142.3" y="183.1" transform="matrix(0.7071 -0.7071 0.7071 0.7071 -92.3119 165.1677)" class="st0" width="21.9" height="21.9"/>
<rect x="93.9" y="183.1" transform="matrix(0.7071 -0.7071 0.7071 0.7071 -106.499 130.9333)" class="st0" width="21.9" height="21.9"/>
<rect x="118.2" y="207.6" transform="matrix(0.7071 -0.7071 0.7071 0.7071 -116.7253 155.3159)" class="st0" width="21.9" height="21.9"/>
<polygon class="st0" points="113.6,48.6 129,33 144.4,48.6 153.3,39.7 137.8,24.1 153.3,8.8 144.4,0 129,15.4 113.6,0 104.7,8.8 
	120.2,24.1 104.7,39.7 "/>
</svg>
